Coordinates
version=1
nRows=7
nColumns=33
inDegrees=yes

Units are S.I. units (second, meters, Newtons, ...)
Angles are in degrees.

endheader
time	ground_thorax_rot_x	ground_thorax_rot_y	ground_thorax_rot_z	ground_thorax_tx	ground_thorax_ty	ground_thorax_tz	clav_prot_r	clav_elev_r	scapula_abduction_r	scapula_elevation_r	scapula_upward_rot_r	scapula_winging_r	shoulder_elv_r	plane_of_elev_r	axial_rot_r	elbow_flexion_r	pro_sup_r	wrist_flex_r	wrist_dev_r	clav_prot_l	clav_elev_l	scapula_abduction_l	scapula_elevation_l	scapula_upward_rot_l	scapula_winging_l	shoulder_elv_l	plane_of_elev_l	axial_rot_l	elbow_flexion_l	pro_sup_l	wrist_flex_l	wrist_dev_l
      2.61000000	     -0.18273926	      2.53216309	     12.82503002	     -0.11623488	      1.02978590	      0.01239359	      9.64696238	    -14.94667175	     16.56799435	     -7.11208826	     -0.75526150	     -1.12734060	    -25.93466138	    -73.39674361	    107.94976888	    -80.99876647	   -173.95729056	     21.60508713	    -13.14433649	     12.44524710	     -3.29171305	    -16.71326291	    -17.91829514	    -33.95128053	      0.97771065	     57.37298107	    -23.08890259	      6.04597487	     67.05056991	     14.77922070	     15.26510644	    -17.86425796
      2.62000000	     -0.05834041	      2.42199148	     12.96462572	     -0.11653560	      1.02971150	      0.01230853	      9.46693392	    -14.51486604	     16.01374674	     -6.48062182	     -1.32457026	     -1.12434395	    -26.63631212	    -74.09214017	    107.85033271	    -81.80992303	   -173.72316471	     22.31140721	    -13.52598900	     12.23488019	     -2.89268802	    -16.36554321	    -18.46967829	    -34.28052162	      0.74251246	     57.25260705	    -24.00897370	      5.81960721	     68.10501224	     14.65551985	     14.99302360	    -18.25389269
      2.63000000	     -0.00970074	      2.40363446	     12.78075439	     -0.11623918	      1.03071391	      0.01222148	      9.09582517	    -14.80995813	     15.08365164	     -6.48514561	     -2.00099634	     -0.60149203	    -28.20063496	    -74.90670454	    106.31702756	    -82.15939592	   -172.52405433	     25.54172028	    -15.92770744	     11.59349944	     -2.74090186	    -15.15909496	    -18.48125530	    -33.92435961	      0.24487735	     57.61710862	    -25.45267600	      4.62220490	     68.82724814	     14.51029223	     13.39794695	    -19.55249086
      2.64000000	      0.05312895	      2.22075403	     12.84133176	     -0.11652378	      1.03061330	      0.01206096	      8.91086833	    -14.35699263	     14.63969357	     -5.93502559	     -2.31652847	     -0.64872272	    -28.95565989	    -75.60069166	    106.37276826	    -82.69246233	   -172.30474648	     25.96425752	    -16.06659307	     11.40415095	     -2.28595267	    -14.83916349	    -19.08979151	    -34.25598896	      0.01673585	     57.41110645	    -26.28128215	      4.64373586	     69.77033941	     14.38811431	     13.19767408	    -19.85547806
      2.65000000	      0.16073274	      2.20639539	     12.76839251	     -0.11623712	      1.03118488	      0.01204181	      8.58453016	    -14.23845689	     13.89800342	     -5.64700925	     -2.75874799	     -0.40708674	    -30.71062958	    -76.23336242	    104.88411702	    -82.89110166	   -170.76173181	     28.74901552	    -17.87766941	     10.82918473	     -1.97893319	    -13.73066882	    -19.25108792	    -33.90456188	     -0.43934778	     57.49266779	    -27.46475684	      3.65029577	     70.18516062	     14.37024971	     11.92063192	    -21.08746792
      2.66000000	      0.21547514	      2.03234550	     12.62380734	     -0.11654287	      1.03104333	      0.01185105	      8.45490071	    -13.83599904	     13.55569827	     -5.15122640	     -3.05015061	     -0.45939007	    -31.24008978	    -76.73047333	    104.93184848	    -83.34513455	   -170.56153081	     29.05322563	    -17.96863784	     10.70015466	     -1.58568548	    -13.51106050	    -19.79948155	    -34.23265611	     -0.62991787	     57.31682107	    -28.21384486	      3.74327142	     71.10173192	     14.27528868	     11.79913165	    -21.34890905
      2.67000000	      0.24708628	      1.92211295	     12.59400368	     -0.11639428	      1.03160501	      0.01169651	      8.24216831	    -13.80557605	     13.06562071	     -4.99835039	     -3.35434302	     -0.27964863	    -33.46926491	    -77.49682577	    103.16524339	    -83.12296109	   -168.01865791	     32.37233661	    -20.07770413	     10.13508136	     -1.24341677	    -12.39358541	    -19.95579864	    -33.79715961	     -1.06737862	     57.35039681	    -29.51037787	      2.74825235	     71.41725722	     14.47261445	     10.41938526	    -22.99577456
